<svg xmlns="http://www.w3.org/2000/svg" viewBox="0 0 1200 1500" width="1200" height="1500" role="img">
  <defs>
    <linearGradient id="field" x1="0" y1="0" x2="0" y2="1">
      <stop offset="0" stop-color="#0B1733"/>
      <stop offset="1" stop-color="#081026"/>
    </linearGradient>
    <radialGradient id="bloom" cx="0.5" cy="0.4" r="0.85">
      <stop offset="0" stop-color="#16264c" stop-opacity="0.9"/>
      <stop offset="0.55" stop-color="#16264c" stop-opacity="0"/>
    </radialGradient>
    <radialGradient id="vignette" cx="0.5" cy="0.42" r="0.75">
      <stop offset="0.55" stop-color="#000000" stop-opacity="0"/>
      <stop offset="1" stop-color="#000000" stop-opacity="0.38"/>
    </radialGradient>
    <linearGradient id="scrim" x1="0" y1="0" x2="0" y2="1">
      <stop offset="0.45" stop-color="#081026" stop-opacity="0"/>
      <stop offset="1" stop-color="#081026" stop-opacity="0.55"/>
    </linearGradient>
    <filter id="grain">
      <feTurbulence type="fractalNoise" baseFrequency="0.9" numOctaves="2" stitchTiles="stitch"/>
      <feColorMatrix type="saturate" values="0"/>
    </filter>
    <filter id="soft" x="-20%" y="-20%" width="140%" height="140%">
      <feGaussianBlur stdDeviation="9"/>
    </filter>
  </defs>
  <rect width="1200" height="1500" fill="url(#field)"/>
  <rect width="1200" height="1500" fill="url(#bloom)"/>
  <g fill="none">
    <circle cx="600.0" cy="760" r="120" stroke="#C9CFDB" stroke-opacity="0.200" stroke-width="2"/>
    <circle cx="600.0" cy="760" r="250" stroke="#C9CFDB" stroke-opacity="0.165" stroke-width="2"/>
    <circle cx="600.0" cy="760" r="380" stroke="#C9CFDB" stroke-opacity="0.130" stroke-width="2"/>
    <circle cx="600.0" cy="760" r="510" stroke="#C9CFDB" stroke-opacity="0.095" stroke-width="2"/>
    <path d="M 819 640 A 250 250 0 0 1 568 1008" stroke="#A9822E" stroke-width="4"/>
    <circle cx="950" cy="908" r="6" fill="#C9CFDB" fill-opacity="0.3"/>
    <circle cx="647" cy="1137" r="6" fill="#C9CFDB" fill-opacity="0.3"/>
    <circle cx="297" cy="989" r="6" fill="#C9CFDB" fill-opacity="0.3"/>
    <circle cx="250" cy="612" r="6" fill="#C9CFDB" fill-opacity="0.3"/>
    <circle cx="553" cy="383" r="6" fill="#C9CFDB" fill-opacity="0.3"/>
    <circle cx="903" cy="531" r="6" fill="#C9CFDB" fill-opacity="0.3"/>
    <circle cx="600.0" cy="760" r="60" fill="#16264c" fill-opacity="0.7" filter="url(#soft)"/>
    <circle cx="600.0" cy="760" r="12" fill="#A9822E"/>
  </g>
  <rect width="1200" height="1500" fill="url(#vignette)"/>
  <rect width="1200" height="1500" filter="url(#grain)" opacity="0.05"/>
  <rect width="1200" height="1500" fill="url(#scrim)"/>
  <rect x="8" y="8" width="1184" height="1484" rx="30" fill="none" stroke="#FFFFFF" stroke-opacity="0.06"/>
  <line x1="96" y1="120" x2="164" y2="120" stroke="#A9822E" stroke-width="3" stroke-linecap="round"/>
</svg>
