<svg xmlns="http://www.w3.org/2000/svg" viewBox="0 0 1200 1500" width="1200" height="1500" role="img">
  <defs>
    <linearGradient id="field" x1="0" y1="0" x2="0" y2="1">
      <stop offset="0" stop-color="#0B1733"/>
      <stop offset="1" stop-color="#081026"/>
    </linearGradient>
    <radialGradient id="bloom" cx="0.5" cy="0.28" r="0.85">
      <stop offset="0" stop-color="#16264c" stop-opacity="0.9"/>
      <stop offset="0.55" stop-color="#16264c" stop-opacity="0"/>
    </radialGradient>
    <radialGradient id="vignette" cx="0.5" cy="0.42" r="0.75">
      <stop offset="0.55" stop-color="#000000" stop-opacity="0"/>
      <stop offset="1" stop-color="#000000" stop-opacity="0.38"/>
    </radialGradient>
    <linearGradient id="scrim" x1="0" y1="0" x2="0" y2="1">
      <stop offset="0.45" stop-color="#081026" stop-opacity="0"/>
      <stop offset="1" stop-color="#081026" stop-opacity="0.55"/>
    </linearGradient>
    <filter id="grain">
      <feTurbulence type="fractalNoise" baseFrequency="0.9" numOctaves="2" stitchTiles="stitch"/>
      <feColorMatrix type="saturate" values="0"/>
    </filter>
    <filter id="soft" x="-20%" y="-20%" width="140%" height="140%">
      <feGaussianBlur stdDeviation="9"/>
    </filter>
  </defs>
  <rect width="1200" height="1500" fill="url(#field)"/>
  <rect width="1200" height="1500" fill="url(#bloom)"/>
  <g fill="none" stroke-linecap="round">
    <line x1="450" y1="470" x2="750" y2="470" stroke="#C9CFDB" stroke-opacity="0.19" stroke-width="6"/>
    <line x1="388" y1="562" x2="812" y2="562" stroke="#C9CFDB" stroke-opacity="0.17" stroke-width="6"/>
    <line x1="326" y1="654" x2="874" y2="654" stroke="#C9CFDB" stroke-opacity="0.15" stroke-width="6"/>
    <line x1="264" y1="746" x2="936" y2="746" stroke="#C9CFDB" stroke-opacity="0.13" stroke-width="6"/>
    <line x1="202" y1="838" x2="998" y2="838" stroke="#C9CFDB" stroke-opacity="0.11" stroke-width="6"/>
    <line x1="140" y1="930" x2="1060" y2="930" stroke="#C9CFDB" stroke-opacity="0.09" stroke-width="6"/>
    <line x1="78" y1="1022" x2="1122" y2="1022" stroke="#C9CFDB" stroke-opacity="0.07" stroke-width="6"/>
    <ellipse cx="600.0" cy="760" rx="360" ry="120" fill="#16264c" fill-opacity="0.5" stroke="none" filter="url(#soft)"/>
    <line x1="350" y1="760" x2="850" y2="760" stroke="#FFFFFF" stroke-opacity="0.5" stroke-width="7"/>
    <line x1="480" y1="792" x2="720" y2="792" stroke="#A9822E" stroke-width="5"/>
  </g>
  <rect width="1200" height="1500" fill="url(#vignette)"/>
  <rect width="1200" height="1500" filter="url(#grain)" opacity="0.05"/>
  <rect width="1200" height="1500" fill="url(#scrim)"/>
  <rect x="8" y="8" width="1184" height="1484" rx="30" fill="none" stroke="#FFFFFF" stroke-opacity="0.06"/>
  <line x1="96" y1="120" x2="164" y2="120" stroke="#A9822E" stroke-width="3" stroke-linecap="round"/>
</svg>
