<svg xmlns="http://www.w3.org/2000/svg" viewBox="0 0 1200 1500" width="1200" height="1500" role="img">
  <defs>
    <linearGradient id="field" x1="0" y1="0" x2="0" y2="1">
      <stop offset="0" stop-color="#0B1733"/>
      <stop offset="1" stop-color="#081026"/>
    </linearGradient>
    <radialGradient id="bloom" cx="0.5" cy="0.28" r="0.85">
      <stop offset="0" stop-color="#16264c" stop-opacity="0.9"/>
      <stop offset="0.55" stop-color="#16264c" stop-opacity="0"/>
    </radialGradient>
    <radialGradient id="vignette" cx="0.5" cy="0.42" r="0.75">
      <stop offset="0.55" stop-color="#000000" stop-opacity="0"/>
      <stop offset="1" stop-color="#000000" stop-opacity="0.38"/>
    </radialGradient>
    <linearGradient id="scrim" x1="0" y1="0" x2="0" y2="1">
      <stop offset="0.45" stop-color="#081026" stop-opacity="0"/>
      <stop offset="1" stop-color="#081026" stop-opacity="0.55"/>
    </linearGradient>
    <filter id="grain">
      <feTurbulence type="fractalNoise" baseFrequency="0.9" numOctaves="2" stitchTiles="stitch"/>
      <feColorMatrix type="saturate" values="0"/>
    </filter>
    <filter id="soft" x="-20%" y="-20%" width="140%" height="140%">
      <feGaussianBlur stdDeviation="9"/>
    </filter>
  </defs>
  <rect width="1200" height="1500" fill="url(#field)"/>
  <rect width="1200" height="1500" fill="url(#bloom)"/>
  <g>
    <ellipse cx="632" cy="588" rx="320" ry="260" fill="#A9822E" fill-opacity="0.06" filter="url(#soft)"/>
    <rect x="336" y="300" width="54" height="78" rx="3" fill="#C9CFDB" fill-opacity="0.10"/>
    <rect x="410" y="300" width="54" height="78" rx="3" fill="#C9CFDB" fill-opacity="0.10"/>
    <rect x="484" y="300" width="54" height="78" rx="3" fill="#C9CFDB" fill-opacity="0.10"/>
    <rect x="558" y="300" width="54" height="78" rx="3" fill="#C9CFDB" fill-opacity="0.10"/>
    <rect x="632" y="300" width="54" height="78" rx="3" fill="#C9CFDB" fill-opacity="0.10"/>
    <rect x="706" y="300" width="54" height="78" rx="3" fill="#C9CFDB" fill-opacity="0.10"/>
    <rect x="780" y="300" width="54" height="78" rx="3" fill="#C9CFDB" fill-opacity="0.10"/>
    <rect x="854" y="300" width="54" height="78" rx="3" fill="#C9CFDB" fill-opacity="0.10"/>
    <rect x="336" y="396" width="54" height="78" rx="3" fill="#C9CFDB" fill-opacity="0.10"/>
    <rect x="410" y="396" width="54" height="78" rx="3" fill="#C9CFDB" fill-opacity="0.10"/>
    <rect x="484" y="396" width="54" height="78" rx="3" fill="#C9CFDB" fill-opacity="0.10"/>
    <rect x="558" y="396" width="54" height="78" rx="3" fill="#C9CFDB" fill-opacity="0.10"/>
    <rect x="632" y="396" width="54" height="78" rx="3" fill="#A9822E" fill-opacity="0.55"/>
    <rect x="706" y="396" width="54" height="78" rx="3" fill="#C9CFDB" fill-opacity="0.10"/>
    <rect x="780" y="396" width="54" height="78" rx="3" fill="#C9CFDB" fill-opacity="0.10"/>
    <rect x="854" y="396" width="54" height="78" rx="3" fill="#C9CFDB" fill-opacity="0.10"/>
    <rect x="336" y="492" width="54" height="78" rx="3" fill="#C9CFDB" fill-opacity="0.10"/>
    <rect x="410" y="492" width="54" height="78" rx="3" fill="#A9822E" fill-opacity="0.55"/>
    <rect x="484" y="492" width="54" height="78" rx="3" fill="#C9CFDB" fill-opacity="0.10"/>
    <rect x="558" y="492" width="54" height="78" rx="3" fill="#C9CFDB" fill-opacity="0.10"/>
    <rect x="632" y="492" width="54" height="78" rx="3" fill="#C9CFDB" fill-opacity="0.10"/>
    <rect x="706" y="492" width="54" height="78" rx="3" fill="#C9CFDB" fill-opacity="0.10"/>
    <rect x="780" y="492" width="54" height="78" rx="3" fill="#C9CFDB" fill-opacity="0.10"/>
    <rect x="854" y="492" width="54" height="78" rx="3" fill="#C9CFDB" fill-opacity="0.10"/>
    <rect x="336" y="588" width="54" height="78" rx="3" fill="#C9CFDB" fill-opacity="0.10"/>
    <rect x="410" y="588" width="54" height="78" rx="3" fill="#C9CFDB" fill-opacity="0.10"/>
    <rect x="484" y="588" width="54" height="78" rx="3" fill="#C9CFDB" fill-opacity="0.10"/>
    <rect x="558" y="588" width="54" height="78" rx="3" fill="#C9CFDB" fill-opacity="0.10"/>
    <rect x="632" y="588" width="54" height="78" rx="3" fill="#C9CFDB" fill-opacity="0.10"/>
    <rect x="706" y="588" width="54" height="78" rx="3" fill="#C9CFDB" fill-opacity="0.10"/>
    <rect x="780" y="588" width="54" height="78" rx="3" fill="#A9822E" fill-opacity="0.55"/>
    <rect x="854" y="588" width="54" height="78" rx="3" fill="#C9CFDB" fill-opacity="0.10"/>
    <rect x="336" y="684" width="54" height="78" rx="3" fill="#C9CFDB" fill-opacity="0.10"/>
    <rect x="410" y="684" width="54" height="78" rx="3" fill="#C9CFDB" fill-opacity="0.10"/>
    <rect x="484" y="684" width="54" height="78" rx="3" fill="#C9CFDB" fill-opacity="0.10"/>
    <rect x="558" y="684" width="54" height="78" rx="3" fill="#C9CFDB" fill-opacity="0.10"/>
    <rect x="632" y="684" width="54" height="78" rx="3" fill="#C9CFDB" fill-opacity="0.10"/>
    <rect x="706" y="684" width="54" height="78" rx="3" fill="#C9CFDB" fill-opacity="0.10"/>
    <rect x="780" y="684" width="54" height="78" rx="3" fill="#C9CFDB" fill-opacity="0.10"/>
    <rect x="854" y="684" width="54" height="78" rx="3" fill="#A9822E" fill-opacity="0.55"/>
    <rect x="336" y="780" width="54" height="78" rx="3" fill="#C9CFDB" fill-opacity="0.10"/>
    <rect x="410" y="780" width="54" height="78" rx="3" fill="#C9CFDB" fill-opacity="0.10"/>
    <rect x="484" y="780" width="54" height="78" rx="3" fill="#A9822E" fill-opacity="0.55"/>
    <rect x="558" y="780" width="54" height="78" rx="3" fill="#C9CFDB" fill-opacity="0.10"/>
    <rect x="632" y="780" width="54" height="78" rx="3" fill="#C9CFDB" fill-opacity="0.10"/>
    <rect x="706" y="780" width="54" height="78" rx="3" fill="#C9CFDB" fill-opacity="0.10"/>
    <rect x="780" y="780" width="54" height="78" rx="3" fill="#C9CFDB" fill-opacity="0.10"/>
    <rect x="854" y="780" width="54" height="78" rx="3" fill="#C9CFDB" fill-opacity="0.10"/>
    <rect x="336" y="876" width="54" height="78" rx="3" fill="#A9822E" fill-opacity="0.55"/>
    <rect x="410" y="876" width="54" height="78" rx="3" fill="#C9CFDB" fill-opacity="0.10"/>
    <rect x="484" y="876" width="54" height="78" rx="3" fill="#C9CFDB" fill-opacity="0.10"/>
    <rect x="558" y="876" width="54" height="78" rx="3" fill="#C9CFDB" fill-opacity="0.10"/>
    <rect x="632" y="876" width="54" height="78" rx="3" fill="#C9CFDB" fill-opacity="0.10"/>
    <rect x="706" y="876" width="54" height="78" rx="3" fill="#A9822E" fill-opacity="0.55"/>
    <rect x="780" y="876" width="54" height="78" rx="3" fill="#C9CFDB" fill-opacity="0.10"/>
    <rect x="854" y="876" width="54" height="78" rx="3" fill="#C9CFDB" fill-opacity="0.10"/>
    <rect x="336" y="972" width="54" height="78" rx="3" fill="#C9CFDB" fill-opacity="0.10"/>
    <rect x="410" y="972" width="54" height="78" rx="3" fill="#C9CFDB" fill-opacity="0.10"/>
    <rect x="484" y="972" width="54" height="78" rx="3" fill="#C9CFDB" fill-opacity="0.10"/>
    <rect x="558" y="972" width="54" height="78" rx="3" fill="#C9CFDB" fill-opacity="0.10"/>
    <rect x="632" y="972" width="54" height="78" rx="3" fill="#C9CFDB" fill-opacity="0.10"/>
    <rect x="706" y="972" width="54" height="78" rx="3" fill="#C9CFDB" fill-opacity="0.10"/>
    <rect x="780" y="972" width="54" height="78" rx="3" fill="#C9CFDB" fill-opacity="0.10"/>
    <rect x="854" y="972" width="54" height="78" rx="3" fill="#C9CFDB" fill-opacity="0.10"/>
    <rect x="336" y="1068" width="54" height="78" rx="3" fill="#C9CFDB" fill-opacity="0.10"/>
    <rect x="410" y="1068" width="54" height="78" rx="3" fill="#C9CFDB" fill-opacity="0.10"/>
    <rect x="484" y="1068" width="54" height="78" rx="3" fill="#C9CFDB" fill-opacity="0.10"/>
    <rect x="558" y="1068" width="54" height="78" rx="3" fill="#A9822E" fill-opacity="0.55"/>
    <rect x="632" y="1068" width="54" height="78" rx="3" fill="#C9CFDB" fill-opacity="0.10"/>
    <rect x="706" y="1068" width="54" height="78" rx="3" fill="#C9CFDB" fill-opacity="0.10"/>
    <rect x="780" y="1068" width="54" height="78" rx="3" fill="#C9CFDB" fill-opacity="0.10"/>
    <rect x="854" y="1068" width="54" height="78" rx="3" fill="#C9CFDB" fill-opacity="0.10"/>
  </g>
  <rect width="1200" height="1500" fill="url(#vignette)"/>
  <rect width="1200" height="1500" filter="url(#grain)" opacity="0.05"/>
  <rect width="1200" height="1500" fill="url(#scrim)"/>
  <rect x="8" y="8" width="1184" height="1484" rx="30" fill="none" stroke="#FFFFFF" stroke-opacity="0.06"/>
  <line x1="96" y1="120" x2="164" y2="120" stroke="#A9822E" stroke-width="3" stroke-linecap="round"/>
</svg>
