<svg xmlns="http://www.w3.org/2000/svg" viewBox="0 0 1200 1500" width="1200" height="1500" role="img">
  <defs>
    <linearGradient id="field" x1="0" y1="0" x2="0" y2="1">
      <stop offset="0" stop-color="#0B1733"/>
      <stop offset="1" stop-color="#081026"/>
    </linearGradient>
    <radialGradient id="bloom" cx="0.66" cy="0.7" r="0.85">
      <stop offset="0" stop-color="#16264c" stop-opacity="0.9"/>
      <stop offset="0.55" stop-color="#16264c" stop-opacity="0"/>
    </radialGradient>
    <radialGradient id="vignette" cx="0.5" cy="0.42" r="0.75">
      <stop offset="0.55" stop-color="#000000" stop-opacity="0"/>
      <stop offset="1" stop-color="#000000" stop-opacity="0.38"/>
    </radialGradient>
    <linearGradient id="scrim" x1="0" y1="0" x2="0" y2="1">
      <stop offset="0.45" stop-color="#081026" stop-opacity="0"/>
      <stop offset="1" stop-color="#081026" stop-opacity="0.55"/>
    </linearGradient>
    <filter id="grain">
      <feTurbulence type="fractalNoise" baseFrequency="0.9" numOctaves="2" stitchTiles="stitch"/>
      <feColorMatrix type="saturate" values="0"/>
    </filter>
    <filter id="soft" x="-20%" y="-20%" width="140%" height="140%">
      <feGaussianBlur stdDeviation="9"/>
    </filter>
  </defs>
  <rect width="1200" height="1500" fill="url(#field)"/>
  <rect width="1200" height="1500" fill="url(#bloom)"/>
  <g>
    <rect x="250" y="1060" width="340" height="200" rx="20" fill="#FFFFFF" fill-opacity="0.04" stroke="#C9CFDB" stroke-opacity="0.16" stroke-width="2"/>
    <line x1="278" y1="1124" x2="520" y2="1124" stroke="#C9CFDB" stroke-opacity="0.2" stroke-width="6"/>
    <line x1="278" y1="1168" x2="450" y2="1168" stroke="#C9CFDB" stroke-opacity="0.12" stroke-width="6"/>
    <rect x="370" y="910" width="340" height="200" rx="20" fill="#FFFFFF" fill-opacity="0.04" stroke="#C9CFDB" stroke-opacity="0.16" stroke-width="2"/>
    <line x1="398" y1="974" x2="640" y2="974" stroke="#C9CFDB" stroke-opacity="0.2" stroke-width="6"/>
    <line x1="398" y1="1018" x2="570" y2="1018" stroke="#C9CFDB" stroke-opacity="0.12" stroke-width="6"/>
    <rect x="490" y="760" width="340" height="200" rx="20" fill="#FFFFFF" fill-opacity="0.04" stroke="#C9CFDB" stroke-opacity="0.16" stroke-width="2"/>
    <line x1="518" y1="824" x2="760" y2="824" stroke="#C9CFDB" stroke-opacity="0.2" stroke-width="6"/>
    <line x1="518" y1="868" x2="690" y2="868" stroke="#C9CFDB" stroke-opacity="0.12" stroke-width="6"/>
    <rect x="610" y="610" width="340" height="200" rx="20" fill="#FFFFFF" fill-opacity="0.04" stroke="#C9CFDB" stroke-opacity="0.16" stroke-width="2"/>
    <line x1="638" y1="674" x2="880" y2="674" stroke="#C9CFDB" stroke-opacity="0.2" stroke-width="6"/>
    <line x1="638" y1="718" x2="810" y2="718" stroke="#C9CFDB" stroke-opacity="0.12" stroke-width="6"/>
    <rect x="730" y="460" width="340" height="200" rx="20" fill="#FFFFFF" fill-opacity="0.04" stroke="#C9CFDB" stroke-opacity="0.16" stroke-width="2"/>
    <line x1="758" y1="524" x2="1000" y2="524" stroke="#C9CFDB" stroke-opacity="0.2" stroke-width="6"/>
    <line x1="758" y1="568" x2="930" y2="568" stroke="#C9CFDB" stroke-opacity="0.12" stroke-width="6"/>
    <path d="M 290 1100 C 290 1025 410 1025 410 950 C 410 875 530 875 530 800 C 530 725 650 725 650 650 C 650 575 770 575 770 500" fill="none" stroke="#A9822E" stroke-width="4"/>
    <circle cx="290" cy="1100" r="8" fill="#A9822E"/>
    <circle cx="410" cy="950" r="8" fill="#A9822E"/>
    <circle cx="530" cy="800" r="8" fill="#A9822E"/>
    <circle cx="650" cy="650" r="8" fill="#A9822E"/>
    <circle cx="770" cy="500" r="8" fill="#A9822E"/>
  </g>
  <rect width="1200" height="1500" fill="url(#vignette)"/>
  <rect width="1200" height="1500" filter="url(#grain)" opacity="0.05"/>
  <rect width="1200" height="1500" fill="url(#scrim)"/>
  <rect x="8" y="8" width="1184" height="1484" rx="30" fill="none" stroke="#FFFFFF" stroke-opacity="0.06"/>
  <line x1="96" y1="120" x2="164" y2="120" stroke="#A9822E" stroke-width="3" stroke-linecap="round"/>
</svg>
