<svg xmlns="http://www.w3.org/2000/svg" viewBox="0 0 1200 1500" width="1200" height="1500" role="img">
  <defs>
    <linearGradient id="field" x1="0" y1="0" x2="0" y2="1">
      <stop offset="0" stop-color="#0B1733"/>
      <stop offset="1" stop-color="#081026"/>
    </linearGradient>
    <radialGradient id="bloom" cx="0.72" cy="0.22" r="0.85">
      <stop offset="0" stop-color="#16264c" stop-opacity="0.9"/>
      <stop offset="0.55" stop-color="#16264c" stop-opacity="0"/>
    </radialGradient>
    <radialGradient id="vignette" cx="0.5" cy="0.42" r="0.75">
      <stop offset="0.55" stop-color="#000000" stop-opacity="0"/>
      <stop offset="1" stop-color="#000000" stop-opacity="0.38"/>
    </radialGradient>
    <linearGradient id="scrim" x1="0" y1="0" x2="0" y2="1">
      <stop offset="0.45" stop-color="#081026" stop-opacity="0"/>
      <stop offset="1" stop-color="#081026" stop-opacity="0.55"/>
    </linearGradient>
    <filter id="grain">
      <feTurbulence type="fractalNoise" baseFrequency="0.9" numOctaves="2" stitchTiles="stitch"/>
      <feColorMatrix type="saturate" values="0"/>
    </filter>
    <filter id="soft" x="-20%" y="-20%" width="140%" height="140%">
      <feGaussianBlur stdDeviation="9"/>
    </filter>
  </defs>
  <rect width="1200" height="1500" fill="url(#field)"/>
  <rect width="1200" height="1500" fill="url(#bloom)"/>
  <g>
    <line x1="210" y1="1173" x2="366" y2="1079" stroke="#C9CFDB" stroke-opacity="0.16" stroke-width="2"/>
    <line x1="366" y1="1079" x2="522" y2="1075" stroke="#C9CFDB" stroke-opacity="0.16" stroke-width="2"/>
    <line x1="522" y1="1075" x2="522" y2="942" stroke="#C9CFDB" stroke-opacity="0.16" stroke-width="2"/>
    <line x1="522" y1="942" x2="678" y2="837" stroke="#C9CFDB" stroke-opacity="0.16" stroke-width="2"/>
    <line x1="678" y1="837" x2="678" y2="728" stroke="#C9CFDB" stroke-opacity="0.16" stroke-width="2"/>
    <line x1="678" y1="728" x2="834" y2="583" stroke="#C9CFDB" stroke-opacity="0.16" stroke-width="2"/>
    <line x1="834" y1="583" x2="990" y2="490" stroke="#C9CFDB" stroke-opacity="0.16" stroke-width="2"/>
    <circle cx="210" cy="360" r="5" fill="#C9CFDB" fill-opacity="0.22"/>
    <circle cx="366" cy="374" r="5" fill="#C9CFDB" fill-opacity="0.22"/>
    <circle cx="522" cy="356" r="5" fill="#C9CFDB" fill-opacity="0.22"/>
    <circle cx="678" cy="347" r="5" fill="#C9CFDB" fill-opacity="0.22"/>
    <circle cx="834" cy="367" r="5" fill="#C9CFDB" fill-opacity="0.22"/>
    <circle cx="990" cy="371" r="5" fill="#C9CFDB" fill-opacity="0.22"/>
    <circle cx="210" cy="465" r="5" fill="#C9CFDB" fill-opacity="0.22"/>
    <circle cx="366" cy="485" r="5" fill="#C9CFDB" fill-opacity="0.22"/>
    <circle cx="522" cy="489" r="5" fill="#C9CFDB" fill-opacity="0.22"/>
    <circle cx="678" cy="468" r="5" fill="#C9CFDB" fill-opacity="0.22"/>
    <circle cx="834" cy="469" r="5" fill="#C9CFDB" fill-opacity="0.22"/>
    <circle cx="990" cy="490" r="5" fill="#C9CFDB" fill-opacity="0.22"/>
    <circle cx="210" cy="586" r="5" fill="#C9CFDB" fill-opacity="0.22"/>
    <circle cx="366" cy="587" r="5" fill="#C9CFDB" fill-opacity="0.22"/>
    <circle cx="522" cy="608" r="5" fill="#C9CFDB" fill-opacity="0.22"/>
    <circle cx="678" cy="602" r="5" fill="#C9CFDB" fill-opacity="0.22"/>
    <circle cx="834" cy="583" r="5" fill="#C9CFDB" fill-opacity="0.22"/>
    <circle cx="990" cy="594" r="5" fill="#C9CFDB" fill-opacity="0.22"/>
    <circle cx="210" cy="720" r="5" fill="#C9CFDB" fill-opacity="0.22"/>
    <circle cx="366" cy="701" r="5" fill="#C9CFDB" fill-opacity="0.22"/>
    <circle cx="522" cy="712" r="5" fill="#C9CFDB" fill-opacity="0.22"/>
    <circle cx="834" cy="712" r="5" fill="#C9CFDB" fill-opacity="0.22"/>
    <circle cx="990" cy="700" r="5" fill="#C9CFDB" fill-opacity="0.22"/>
    <circle cx="210" cy="846" r="5" fill="#C9CFDB" fill-opacity="0.22"/>
    <circle cx="366" cy="830" r="5" fill="#C9CFDB" fill-opacity="0.22"/>
    <circle cx="522" cy="818" r="5" fill="#C9CFDB" fill-opacity="0.22"/>
    <circle cx="678" cy="837" r="5" fill="#C9CFDB" fill-opacity="0.22"/>
    <circle cx="834" cy="844" r="5" fill="#C9CFDB" fill-opacity="0.22"/>
    <circle cx="990" cy="824" r="5" fill="#C9CFDB" fill-opacity="0.22"/>
    <circle cx="210" cy="955" r="5" fill="#C9CFDB" fill-opacity="0.22"/>
    <circle cx="366" cy="962" r="5" fill="#C9CFDB" fill-opacity="0.22"/>
    <circle cx="522" cy="942" r="5" fill="#C9CFDB" fill-opacity="0.22"/>
    <circle cx="678" cy="940" r="5" fill="#C9CFDB" fill-opacity="0.22"/>
    <circle cx="834" cy="961" r="5" fill="#C9CFDB" fill-opacity="0.22"/>
    <circle cx="990" cy="957" r="5" fill="#C9CFDB" fill-opacity="0.22"/>
    <circle cx="210" cy="1058" r="5" fill="#C9CFDB" fill-opacity="0.22"/>
    <circle cx="366" cy="1079" r="5" fill="#C9CFDB" fill-opacity="0.22"/>
    <circle cx="522" cy="1075" r="5" fill="#C9CFDB" fill-opacity="0.22"/>
    <circle cx="678" cy="1055" r="5" fill="#C9CFDB" fill-opacity="0.22"/>
    <circle cx="834" cy="1064" r="5" fill="#C9CFDB" fill-opacity="0.22"/>
    <circle cx="990" cy="1082" r="5" fill="#C9CFDB" fill-opacity="0.22"/>
    <circle cx="210" cy="1173" r="5" fill="#C9CFDB" fill-opacity="0.22"/>
    <circle cx="366" cy="1182" r="5" fill="#C9CFDB" fill-opacity="0.22"/>
    <circle cx="522" cy="1200" r="5" fill="#C9CFDB" fill-opacity="0.22"/>
    <circle cx="678" cy="1187" r="5" fill="#C9CFDB" fill-opacity="0.22"/>
    <circle cx="834" cy="1172" r="5" fill="#C9CFDB" fill-opacity="0.22"/>
    <circle cx="990" cy="1189" r="5" fill="#C9CFDB" fill-opacity="0.22"/>
    <circle cx="678" cy="728" r="34" fill="#A9822E" fill-opacity="0.14" filter="url(#soft)"/>
    <circle cx="678" cy="728" r="9" fill="#A9822E"/>
  </g>
  <rect width="1200" height="1500" fill="url(#vignette)"/>
  <rect width="1200" height="1500" filter="url(#grain)" opacity="0.05"/>
  <rect width="1200" height="1500" fill="url(#scrim)"/>
  <rect x="8" y="8" width="1184" height="1484" rx="30" fill="none" stroke="#FFFFFF" stroke-opacity="0.06"/>
  <line x1="96" y1="120" x2="164" y2="120" stroke="#A9822E" stroke-width="3" stroke-linecap="round"/>
</svg>
