<svg xmlns="http://www.w3.org/2000/svg" viewBox="0 0 1200 1500" width="1200" height="1500" role="img">
  <defs>
    <linearGradient id="field" x1="0" y1="0" x2="0" y2="1">
      <stop offset="0" stop-color="#0B1733"/>
      <stop offset="1" stop-color="#081026"/>
    </linearGradient>
    <radialGradient id="bloom" cx="0.3" cy="0.3" r="0.85">
      <stop offset="0" stop-color="#16264c" stop-opacity="0.9"/>
      <stop offset="0.55" stop-color="#16264c" stop-opacity="0"/>
    </radialGradient>
    <radialGradient id="vignette" cx="0.5" cy="0.42" r="0.75">
      <stop offset="0.55" stop-color="#000000" stop-opacity="0"/>
      <stop offset="1" stop-color="#000000" stop-opacity="0.38"/>
    </radialGradient>
    <linearGradient id="scrim" x1="0" y1="0" x2="0" y2="1">
      <stop offset="0.45" stop-color="#081026" stop-opacity="0"/>
      <stop offset="1" stop-color="#081026" stop-opacity="0.55"/>
    </linearGradient>
    <filter id="grain">
      <feTurbulence type="fractalNoise" baseFrequency="0.9" numOctaves="2" stitchTiles="stitch"/>
      <feColorMatrix type="saturate" values="0"/>
    </filter>
    <filter id="soft" x="-20%" y="-20%" width="140%" height="140%">
      <feGaussianBlur stdDeviation="9"/>
    </filter>
  </defs>
  <rect width="1200" height="1500" fill="url(#field)"/>
  <rect width="1200" height="1500" fill="url(#bloom)"/>
  <g fill="none">
    <line x1="260" y1="380" x2="260" y2="1160" stroke="#C9CFDB" stroke-opacity="0.14" stroke-width="4"/>
    <circle cx="260" cy="500" r="6" fill="#C9CFDB" fill-opacity="0.28"/>
    <circle cx="260" cy="720" r="6" fill="#C9CFDB" fill-opacity="0.28"/>
    <circle cx="260" cy="940" r="6" fill="#C9CFDB" fill-opacity="0.28"/>
    <circle cx="260" cy="1160" r="6" fill="#C9CFDB" fill-opacity="0.28"/>
    <line x1="430" y1="380" x2="430" y2="1160" stroke="#C9CFDB" stroke-opacity="0.14" stroke-width="4"/>
    <circle cx="430" cy="500" r="6" fill="#C9CFDB" fill-opacity="0.28"/>
    <circle cx="430" cy="720" r="6" fill="#C9CFDB" fill-opacity="0.28"/>
    <circle cx="430" cy="940" r="6" fill="#C9CFDB" fill-opacity="0.28"/>
    <circle cx="430" cy="1160" r="6" fill="#C9CFDB" fill-opacity="0.28"/>
    <line x1="600" y1="380" x2="600" y2="1160" stroke="#C9CFDB" stroke-opacity="0.14" stroke-width="4"/>
    <circle cx="600" cy="500" r="6" fill="#C9CFDB" fill-opacity="0.28"/>
    <circle cx="600" cy="720" r="6" fill="#C9CFDB" fill-opacity="0.28"/>
    <circle cx="600" cy="940" r="6" fill="#C9CFDB" fill-opacity="0.28"/>
    <circle cx="600" cy="1160" r="6" fill="#C9CFDB" fill-opacity="0.28"/>
    <line x1="770" y1="380" x2="770" y2="1160" stroke="#C9CFDB" stroke-opacity="0.14" stroke-width="4"/>
    <circle cx="770" cy="500" r="6" fill="#C9CFDB" fill-opacity="0.28"/>
    <circle cx="770" cy="720" r="6" fill="#C9CFDB" fill-opacity="0.28"/>
    <circle cx="770" cy="940" r="6" fill="#C9CFDB" fill-opacity="0.28"/>
    <circle cx="770" cy="1160" r="6" fill="#C9CFDB" fill-opacity="0.28"/>
    <line x1="940" y1="380" x2="940" y2="1160" stroke="#C9CFDB" stroke-opacity="0.14" stroke-width="4"/>
    <circle cx="940" cy="500" r="6" fill="#C9CFDB" fill-opacity="0.28"/>
    <circle cx="940" cy="720" r="6" fill="#C9CFDB" fill-opacity="0.28"/>
    <circle cx="940" cy="940" r="6" fill="#C9CFDB" fill-opacity="0.28"/>
    <circle cx="940" cy="1160" r="6" fill="#C9CFDB" fill-opacity="0.28"/>
    <path d="M 260 580 C 345.0 580 345.0 850 430 850 C 515.0 850 515.0 680 600 680 C 685.0 680 685.0 1000 770 1000 C 855.0 1000 855.0 800 940 800" stroke="#C9A227" stroke-width="4" stroke-opacity="0.9"/>
    <circle cx="260" cy="580" r="8" fill="#C9A227"/>
    <circle cx="430" cy="850" r="8" fill="#C9A227"/>
    <circle cx="600" cy="680" r="8" fill="#C9A227"/>
    <circle cx="770" cy="1000" r="8" fill="#C9A227"/>
    <circle cx="940" cy="800" r="8" fill="#C9A227"/>
  </g>
  <rect width="1200" height="1500" fill="url(#vignette)"/>
  <rect width="1200" height="1500" filter="url(#grain)" opacity="0.05"/>
  <rect width="1200" height="1500" fill="url(#scrim)"/>
  <rect x="8" y="8" width="1184" height="1484" rx="30" fill="none" stroke="#FFFFFF" stroke-opacity="0.06"/>
  <line x1="96" y1="120" x2="164" y2="120" stroke="#C9A227" stroke-width="3" stroke-linecap="round"/>
</svg>
